<svg xmlns="http://www.w3.org/2000/svg" xmlns:xlink="http://www.w3.org/1999/xlink" width="65" zoomAndPan="magnify" viewBox="0 0 48.75 48.75" height="65" preserveAspectRatio="xMidYMid meet" version="1.0"><defs><clipPath id="542fbd89af"><path d="M 29.59375 21.390625 L 35.15625 21.390625 L 35.15625 26.953125 L 29.59375 26.953125 Z M 29.59375 21.390625 " clip-rule="nonzero"/></clipPath><clipPath id="d236d96fd7"><path d="M 18.421875 18.742188 L 40.761719 18.742188 L 40.761719 41.128906 L 18.421875 41.128906 Z M 18.421875 18.742188 " clip-rule="nonzero"/></clipPath></defs><g clip-path="url(#542fbd89af)"><path fill="#dadada" d="M 29.59375 21.390625 L 35.15625 21.390625 L 35.15625 26.953125 L 29.59375 26.953125 Z M 29.59375 21.390625 " fill-opacity="1" fill-rule="nonzero"/></g><g clip-path="url(#d236d96fd7)"><path fill="#ffffff" d="M 29.589844 18.742188 C 30.328125 18.742188 31.058594 18.816406 31.777344 18.960938 C 32.5 19.101562 33.203125 19.316406 33.882812 19.597656 C 34.5625 19.878906 35.210938 20.226562 35.820312 20.632812 C 36.433594 21.042969 37 21.507812 37.523438 22.027344 C 38.042969 22.550781 38.507812 23.117188 38.917969 23.730469 C 39.324219 24.339844 39.671875 24.988281 39.953125 25.667969 C 40.234375 26.347656 40.449219 27.050781 40.589844 27.773438 C 40.734375 28.492188 40.808594 29.222656 40.808594 29.960938 C 40.808594 30.695312 40.734375 31.425781 40.589844 32.148438 C 40.449219 32.871094 40.234375 33.570312 39.953125 34.25 C 39.671875 34.933594 39.324219 35.578125 38.917969 36.191406 C 38.507812 36.804688 38.042969 37.371094 37.523438 37.890625 C 37 38.410156 36.433594 38.875 35.820312 39.285156 C 35.210938 39.695312 34.5625 40.039062 33.882812 40.320312 C 33.203125 40.605469 32.5 40.816406 31.777344 40.960938 C 31.058594 41.105469 30.328125 41.175781 29.589844 41.175781 C 28.855469 41.175781 28.125 41.105469 27.402344 40.960938 C 26.679688 40.816406 25.980469 40.605469 25.296875 40.320312 C 24.617188 40.039062 23.972656 39.695312 23.359375 39.285156 C 22.746094 38.875 22.179688 38.410156 21.660156 37.890625 C 21.140625 37.371094 20.675781 36.804688 20.265625 36.191406 C 19.855469 35.578125 19.511719 34.933594 19.230469 34.25 C 18.945312 33.570312 18.734375 32.871094 18.589844 32.148438 C 18.445312 31.425781 18.375 30.695312 18.375 29.960938 C 18.375 29.222656 18.445312 28.492188 18.589844 27.773438 C 18.734375 27.050781 18.945312 26.347656 19.230469 25.667969 C 19.511719 24.988281 19.855469 24.339844 20.265625 23.730469 C 20.675781 23.117188 21.140625 22.550781 21.660156 22.027344 C 22.179688 21.507812 22.746094 21.042969 23.359375 20.632812 C 23.972656 20.226562 24.617188 19.878906 25.296875 19.597656 C 25.980469 19.316406 26.679688 19.101562 27.402344 18.960938 C 28.125 18.816406 28.855469 18.742188 29.589844 18.742188 Z M 23.1875 30.757812 L 27.671875 35.242188 C 27.777344 35.347656 27.898438 35.429688 28.039062 35.488281 C 28.175781 35.546875 28.320312 35.574219 28.46875 35.574219 C 28.617188 35.574219 28.761719 35.546875 28.902344 35.488281 C 29.039062 35.429688 29.160156 35.347656 29.265625 35.242188 C 29.371094 35.136719 29.453125 35.015625 29.511719 34.878906 C 29.570312 34.738281 29.597656 34.59375 29.597656 34.445312 C 29.597656 34.296875 29.570312 34.152344 29.511719 34.015625 C 29.453125 33.875 29.371094 33.753906 29.265625 33.648438 L 26.6875 31.082031 L 35.199219 31.082031 C 35.347656 31.082031 35.492188 31.054688 35.628906 30.996094 C 35.765625 30.9375 35.886719 30.859375 35.992188 30.753906 C 36.097656 30.648438 36.179688 30.527344 36.234375 30.390625 C 36.292969 30.25 36.320312 30.109375 36.320312 29.960938 C 36.320312 29.8125 36.292969 29.667969 36.234375 29.53125 C 36.179688 29.394531 36.097656 29.273438 35.992188 29.167969 C 35.886719 29.0625 35.765625 28.980469 35.628906 28.921875 C 35.492188 28.867188 35.347656 28.839844 35.199219 28.839844 L 26.6875 28.839844 L 29.265625 26.269531 C 29.371094 26.164062 29.453125 26.042969 29.511719 25.90625 C 29.566406 25.765625 29.59375 25.621094 29.59375 25.472656 C 29.59375 25.324219 29.566406 25.179688 29.511719 25.042969 C 29.453125 24.90625 29.371094 24.78125 29.265625 24.675781 C 29.160156 24.570312 29.039062 24.488281 28.898438 24.433594 C 28.761719 24.375 28.617188 24.347656 28.46875 24.347656 C 28.320312 24.347656 28.175781 24.375 28.039062 24.433594 C 27.898438 24.488281 27.777344 24.570312 27.671875 24.675781 L 23.1875 29.164062 C 23.082031 29.269531 23.003906 29.394531 22.949219 29.535156 C 22.835938 29.816406 22.835938 30.101562 22.949219 30.386719 C 23.003906 30.523438 23.082031 30.648438 23.1875 30.757812 Z M 23.1875 30.757812 " fill-opacity="1" fill-rule="nonzero"/></g></svg>